<svg clip-rule="evenodd" fill-rule="evenodd" stroke-linejoin="round" stroke-miterlimit="1.41421" viewBox="0 0 69 85" xmlns="http://www.w3.org/2000/svg"><path d="m29.596 2.37c.193 3.933.516 7.157 1.031 12.315-9.865 4.514-19.988 15.282-21.02 26.823-2.643 0-6.576.903-8.833 1.225-.581.065-.774.903-.774 1.999 0 1.741.709 3.998 1.547 3.998h.065c2.257 0 6.125-.387 8.189-.709.516 12.38 14.765 17.151 22.374 17.151.451 0 .709-.064 1.161-.064 0 2.772-.065 5.609-.065 8.382 0 3.804.065 7.222.387 9.736.58.581 1.419.774 2.386.774 1.483 0 2.966-.58 3.804-1.547-.709-5.094-1.032-11.929-1.225-19.215 4.255-2.128 16.378-7.544 20.762-22.568 3.869-.322 9.221.903 9.221-4.513 0-2.128-.452-4.449-1.29-4.449h-.064c-1.484.322-4.772.773-7.093 1.16-.838-15.346-9.865-19.408-19.021-19.408-1.741 0-3.418.129-5.03.387-.516-4.062-.516-8.124-.516-11.993 0-1.096-1.225-1.548-2.514-1.548-1.741 0-3.482.71-3.482 1.935v.129zm1.547 35.334-7.737 1.483v-.451c0-3.869 3.804-14.895 7.737-16.249zm5.159-16.12c.064-.064.258-.064.451-.064 3.417 0 8.447 9.93 8.963 13.798l-8.512 1.354zm1.096 23.148 8.769-1.483v.323c0 5.932-4.707 13.669-8.189 14.701zm-4.643.452.516 13.798c-3.869 0-8.705-7.737-9.027-12.444z" fill-rule="nonzero"/></svg>