<?xml version="1.0" encoding="UTF-8" standalone="no"?><!DOCTYPE svg PUBLIC "-//W3C//DTD SVG 1.1//EN" "http://www.w3.org/Graphics/SVG/1.1/DTD/svg11.dtd"><svg width="100%" height="100%" viewBox="0 0 98 60" version="1.1" xmlns="http://www.w3.org/2000/svg" xmlns:xlink="http://www.w3.org/1999/xlink" xml:space="preserve" xmlns:serif="http://www.serif.com/" style="fill-rule:evenodd;clip-rule:evenodd;stroke-linejoin:round;stroke-miterlimit:1.41421;"><rect id="D.C." x="0" y="0" width="97.623" height="59.509" style="fill:none;"/><path d="M6.725,38.967c-1.143,-0.304 -2.134,-0.762 -3.125,-0.914c0.305,5.487 0.305,8.231 0.458,12.575c1.905,2.286 5.563,2.896 14.251,2.896c1.906,0 3.963,0 6.326,-0.076c8.002,-3.201 12.042,-18.748 12.042,-31.933c0,-17.224 -5.792,-21.035 -14.633,-21.035c-6.707,0 -11.889,3.887 -17.605,10.822c-0.458,3.201 -0.077,6.707 -0.61,12.27c1.143,-0.609 1.6,-0.838 2.439,-1.524c0.152,2.515 0.609,8.003 0.609,12.88c0,1.448 -0.076,2.82 -0.152,4.039Zm3.887,-19.815c4.268,-3.734 9.755,-5.563 13.185,-5.563c4.573,0 6.478,4.801 6.478,9.679c0,6.325 -4.421,17.529 -14.023,17.529c-1.296,0 -2.668,-0.153 -4.268,-0.534c0.152,-2.058 0.305,-4.725 0.305,-7.469c0,-4.573 -0.381,-9.603 -1.677,-13.642Z" style="fill-rule:nonzero;"/><path d="M42.24,47.046c-1.295,2.134 -1.372,3.658 -2.286,5.564l-0.153,0.304c-0.076,0.153 -0.152,0.382 -0.228,0.534c0,0 0.076,0.076 0.152,0.076l1.22,0c1.143,0 2.286,-0.076 3.353,-0.076l0.915,0c2.057,-2.058 1.829,-4.725 3.048,-6.554c-0.838,0 -1.6,-0.305 -2.439,-0.305l-0.762,0c-0.61,0 -1.143,0 -1.524,0.152l-0.305,0c0,0 -0.076,0.076 -0.152,0.076l-0.153,0c-0.228,0 -0.533,0.153 -0.686,0.229Z" style="fill-rule:nonzero;"/><path d="M78.213,51.162c1.676,-1.525 2.439,-3.659 2.439,-5.64c0,-1.601 -0.534,-3.201 -1.601,-4.421c-3.658,1.067 -7.469,1.525 -10.746,1.525c-8.917,0 -11.279,-3.354 -11.279,-9.756c0,-5.639 2.819,-12.498 7.545,-17.452c1.143,-1.448 2.134,-2.058 3.048,-2.058c3.735,0 6.021,11.737 8.536,11.737c2.896,0 3.277,-6.173 3.277,-8.155c0,-10.365 -4.573,-16.31 -10.136,-16.31c-7.926,0 -18.367,13.871 -18.367,30.562c0,7.011 1.829,14.023 6.173,19.51c1.6,1.982 5.03,2.744 8.84,2.744c4.192,0 8.917,-0.915 12.271,-2.286Z" style="fill-rule:nonzero;"/><path d="M86.368,47.046c-1.296,2.134 -1.372,3.658 -2.287,5.564l-0.152,0.304c-0.077,0.153 -0.153,0.382 -0.229,0.534c0,0 0.076,0.076 0.152,0.076l1.22,0c1.143,0 2.286,-0.076 3.353,-0.076l0.915,0c2.058,-2.058 1.829,-4.725 3.048,-6.554c-0.838,0 -1.6,-0.305 -2.438,-0.305l-0.763,0c-0.609,0 -1.143,0 -1.524,0.152l-0.305,0c0,0 -0.076,0.076 -0.152,0.076l-0.153,0c-0.228,0 -0.533,0.153 -0.685,0.229Z" style="fill-rule:nonzero;"/></svg>