<svg viewBox="0 0 8 7" xmlns:serif="http://www.serif.com/" fill-rule="evenodd" clip-rule="evenodd" stroke-linejoin="round" stroke-miterlimit="1.414">
  <path serif:id="Double Sharp" fill="none" d="M0 0h7.104v6.895H0z"/>
  <path d="M.216 1.641c-.02.02-.02.04-.02.08 0 .376 1.448 1.467 2.142 1.467.1 0 .159-.019.179-.039l.674.297-.634.199c-.179.079-.338.158-.516.158-.06 0-.139-.019-.238-.039-.02 0-1.667.853-1.667 1.329 0 .377 1.191 1.547 1.587 1.547.377 0 .972-.833 1.389-1.468 0-.158-.079-.277-.079-.416 0-.1.079-.238.218-.377l.258-.655.119.575c-.06.219-.199.496-.199.715 0 .297 1.31 1.527 1.607 1.527.08 0 1.607-1.289 1.607-1.686S5.155 3.546 4.937 3.546c-.278 0-.456.039-.555.099l-.556-.179.774-.416a.455.455 0 0 0 .258.059c.575 0 1.349-.516 2.063-1.627.02-.019.02-.039.02-.059 0-.377-1.409-1.349-1.786-1.349-.258 0-1.289 1.25-1.507 1.468-.06.059-.08.139-.08.238 0 .218.179.397.179.536l-.238.793-.318-.714c.139-.079.159-.357.159-.595 0-.575-.992-1.547-1.428-1.547-.318 0-1.25.872-1.706 1.388z" fill-rule="nonzero"/>
</svg>
