<svg viewBox="0 0 9 15" xmlns:serif="http://www.serif.com/" fill-rule="evenodd" clip-rule="evenodd" stroke-linejoin="round" stroke-miterlimit="1.414">
  <path serif:id="Double Flat" fill="none" d="M0 0h8.917v14.52H0z"/>
  <path d="M5.507.133c0-.039-.041-.059-.146-.059-.336 0-1.175.317-1.175.595v.02c.021.774.041 1.547.041 2.321 0 2.757-.147 5.416-.147 8.173 0 .575-.041 2.936.189 2.936.756 0 4.365-3.789 4.365-7.181 0-1.012-.356-1.706-1.217-1.706-.503 0-1.154.258-1.972.754.062-1.27.125-2.46.125-3.73 0-.694-.021-1.408-.063-2.123zM5.34 9.06c.167-.377.818-1.408 1.154-1.408.167 0 .252.178.273.555v.06c0 .555-.504 1.686-1.448 2.38 0-.575 0-1.13.021-1.587zM1.52.133c0-.039-.041-.059-.147-.059C1.037.074.199.391.199.669v.02c.02.774.041 1.547.041 2.321 0 2.757-.147 5.416-.147 8.173 0 .575-.041 2.936.189 2.936.755 0 4.365-3.789 4.365-7.181 0-1.012-.357-1.706-1.217-1.706-.504 0-1.155.258-1.973.754.063-1.27.126-2.46.126-3.73 0-.694-.021-1.408-.063-2.123zM1.353 9.06c.167-.377.817-1.408 1.154-1.408.167 0 .252.178.273.555v.06c0 .555-.505 1.686-1.448 2.38 0-.575 0-1.13.021-1.587z" fill-rule="nonzero"/>
</svg>
