<?xml version="1.0" encoding="UTF-8" standalone="no"?><svg width="100%" height="100%" viewBox="0 0 8 9" version="1.1" xmlns="http://www.w3.org/2000/svg" xmlns:xlink="http://www.w3.org/1999/xlink" xml:space="preserve" xmlns:serif="http://www.serif.com/" style="fill-rule:evenodd;clip-rule:evenodd;stroke-linejoin:round;stroke-miterlimit:1.41421;"><rect id="Down-Bow-Markings" serif:id="Down Bow Markings" x="0" y="0" width="7.092" height="8.439" style="fill:none;"/><path d="M0.061,8.155c0.02,0.139 0.1,0.199 0.278,0.199c0.318,0 0.774,-0.298 0.794,-0.595c0,-3.591 -0.199,-5.138 2.42,-5.138c2.718,0 2.321,0.833 2.579,5.634c0,0.099 0.039,0.139 0.139,0.139c0.238,0 0.714,-0.358 0.734,-0.695c0,-0.297 -0.02,-0.674 -0.02,-1.15c0,-1.29 0.039,-3.035 0.039,-4.087c0,-2.122 -0.238,-2.341 -3.055,-2.4l-0.575,0c-2.916,0 -3.253,0.476 -3.253,0.873c0,0.079 0.02,0.158 0.02,0.218c0,0.972 -0.1,4.086 -0.1,7.002Z" style="fill-rule:nonzero;"/></svg>
