<svg clip-rule="evenodd" fill-rule="evenodd" stroke-linejoin="round" stroke-miterlimit="1.41421" viewBox="0 0 45 72" xmlns="http://www.w3.org/2000/svg"><path d="m28.122 15.942c-1.3-3.489-2.395-8.21-7.595-8.21-8.553 0-13.616 9.853-13.616 19.979 0 6.911 2.531 13.137 8.005 14.437-4.379 8.69-10.195 16.08-10.195 24.769 0 3.011.753 4.721 2.053 4.721 2.668 0 9.374-14.642 11.563-19.021 0 3.558 7.8 7.39 14.848 7.39 8.211 0 10.742-10.127 10.742-15.259 0-7.526-4.789-14.163-14.368-15.6 6.021-12.248 14.779-21.895 14.779-26.274 0-1.574-1.026-2.874-2.669-2.874-4.926 0-8.963 9.716-13.547 15.942zm7.868 7.39c-.752 2.121-1.231 3.421-1.231 4.174 0 1.3 1.368 1.232 4.721 1.232 3.558 0 3.147-.822 4.242-3.969.616-1.916.958-3.079.958-3.832 0-1.026-.547-1.094-1.847-1.094h-1.916c-3.764 0-3.832.41-4.927 3.489zm-35.032 20.39c-.616 2.258-.958 3.626-.958 4.379 0 1.026.479 1.095 1.368 1.095h2.122c.752.068 1.368.068 1.915.068 1.848 0 4.106-1.779 4.106-6.705 0-1.369-.821-1.642-2.121-1.642-.548 0-1.164 0-1.916.068-.548-.068-.89-.137-1.369-.137-2.121 0-2.531 1.232-3.147 2.874zm21.964-1.505c.547-.206 1.3-.274 2.326-.274 4.105 0 10.263 1.779 10.263 4.311 0 1.916-2.326 2.805-3.489 2.805-4.927 0-10.127-4.926-10.127-6.021 0-.411.342-.684 1.027-.821zm3.215-21.895c-1.436 2.257-3.215 5.679-4.652 8.142-1.027 0-2.6.342-3.9.342-1.164 0-2.053-.274-2.053-1.3 0-3.011 5.132-7.458 8.895-7.458.616 0 1.231.068 1.71.274z" fill-rule="nonzero"/></svg>