<svg clip-rule="evenodd" fill-rule="evenodd" stroke-linejoin="round" stroke-miterlimit="1.41421" viewBox="0 0 305 58" xmlns="http://www.w3.org/2000/svg"><path d="m0 0h304.844v57.979h-304.844z" fill="none"/><path d="m112.247 23.968v19.561" fill="none" stroke="#000" stroke-width="1.71"/><path d="m219.577 23.968v19.75" fill="none" stroke="#000" stroke-width="1.71"/><path d="m223.46 23.968v20.004" fill="none" stroke="#000" stroke-width="3.73"/><path d="m223.37 24.021 2.247-.02c-3.678-.795-6.8-5.924-6.8-6.362 0-.139-.099-.198-.238-.198-.577 0-1.969.874-1.969 1.491v.079c.159 1.074 1.909 4.931 6.76 5.01z" fill-rule="nonzero"/><path d="m223.032 43.574c-4.851 0-6.601 4.056-6.76 5.01v.099c0 .617 1.094 1.571 1.531 1.571.1 0 .179-.06.179-.199.159-.378 3.639-5.726 7.356-6.481z" fill-rule="nonzero"/><path d="m215.07 31.099c-.338.617-.458.974-.458 1.193 0 .239.159.278.477.278 1.81 0 1.392-.019 2.009-.934.198-.418.357-.716.357-.895 0-.278-.238-.358-.855-.358h-.278c-.119 0-.238.02-.318.02h-.179c-.318 0-.417.04-.755.696z" fill-rule="nonzero"/><path d="m215.07 36.07c-.338.616-.458.974-.458 1.193 0 .238.159.278.477.278 1.81 0 1.392-.02 2.009-.935.198-.417.357-.715.357-.894 0-.279-.238-.358-.855-.358h-.278c-.119 0-.238.02-.318.02h-.179c-.318 0-.417.04-.755.696z" fill-rule="nonzero"/><path d="m293.379 23.968v19.874" fill="none" stroke="#000" stroke-width="1.71"/><path d="m297.262 23.968v19.736" fill="none" stroke="#000" stroke-width="3.73"/><path d="m113.023 3.465v13.048" fill="none" stroke="#000" stroke-width="1.55"/><path d="m117.1 9.449c0 .9.066 4.071.066 4.462-.053 0-.105.026-.196.026h-.378c-.431 0-.862.091-.953.352v.157c0 .274.157.652.3.704h.039c.183-.013.392-.013.64-.013h.443c.131 0 .274.013.405.013h.561c.287.013.574.013.848.027h.535c.013 0 .039-.014.052-.014l.13-.013c.105-.065.248-.156.248-.365v-.169c-.052-.627-.169-.77-1.187-.77h-.496c-.013-.092-.013-.196-.026-.313v-.144c0-.039-.013-.091-.013-.143v-.209c-.013-.392-.013-.848-.013-1.318v-1.409c.013-.431.013-.874.026-1.318v-.13c.013-.522.013-1.031.026-1.514v-.77c-.013-.104-.026-.208-.104-.287l-.052-.052c-.066-.052-.157-.091-.235-.091-.026 0-.052 0-.079.013h-.039c-.378.222-.195.196-.3.3v.013c-.013.026-.013.052-.013.078v.039c0 .04 0 .066.013.092v.026c0 1.226-1.109 1.944-1.37 2.166l-.039.039c-.052.052-.091.104-.13.169v.013c-.053.105-.079.235-.079.353v.13c0 .287.235.509.483.509.587 0 .757-.483.887-.639z" fill-rule="nonzero"/><path d="m120.531 14.002c-.222.366-.235.627-.392.953l-.026.052c-.013.026-.026.065-.039.091 0 0 .013.013.026.013h.209c.196 0 .391-.013.574-.013h.157c.352-.352.313-.809.521-1.122-.143 0-.274-.052-.417-.052h-.131c-.104 0-.195 0-.261.026h-.052s-.013.013-.026.013h-.026c-.039 0-.091.026-.117.039z" fill-rule="nonzero"/><path d="m222.062 3.465v13.048" fill="none" stroke="#000" stroke-width="1.55"/><path d="m113.023 4.087h109.039" fill="none" stroke="#000" stroke-width="1.55"/><path d="m226.217 3.465v13.048" fill="none" stroke="#000" stroke-width="1.55"/><path d="m231.773 7.231c-.183.117-.261.352-.261.613 0 .509.274 1.096.522 1.096.339-.431 1.043-.848 1.513-.848.6 0 .809.991.809 1.318 0 .613-.339 1.396-.783 2.074-.417.626-2.022 1.957-2.022 2.871v.039c0 .443.391.743 1.5.743h.287c.366 0 .979.066 1.475.066.678 0 1.043-.053 1.043-.953 0-.417-.13-.822-.417-.822-.561.131-1.344.274-1.84.274-.3 0-.495-.052-.495-.182 0-.066.039-.157.156-.274 1.683-1.657 2.231-3.184 2.231-4.358 0-2.14-1.383-2.401-2.048-2.401-.548 0-1.057.196-1.67.744z" fill-rule="nonzero"/><path d="m236.952 14.002c-.222.366-.235.627-.392.953l-.026.052c-.013.026-.026.065-.039.091 0 0 .013.013.026.013h.209c.196 0 .391-.013.574-.013h.157c.352-.352.313-.809.522-1.122-.144 0-.274-.052-.418-.052h-.13c-.105 0-.196 0-.261.026h-.053s-.013.013-.026.013h-.026c-.039 0-.091.026-.117.039z" fill-rule="nonzero"/><g fill="none"><path d="m226.413 4.087h71.466" stroke="#000" stroke-width="1.55"/><path d="m3.545 43.85h295.375" stroke="#000" stroke-width=".47"/><path d="m3.545 38.88h295.375" stroke="#000" stroke-width=".47"/><path d="m3.545 33.909h295.375" stroke="#000" stroke-width=".47"/><path d="m3.545 28.939h295.375" stroke="#000" stroke-width=".47"/><path d="m3.545 23.968h295.375" stroke="#000" stroke-width=".47"/></g><path d="m13.895 27.139c1.093-2.326 1.511-4.374 1.511-6.064 0-3.857-2.247-5.806-3.738-5.806-1.332 0-1.65 2.525-1.65 3.897 0 2.466.894 4.792 1.59 6.7-1.888 4.016-4.553 7.714-4.553 13.599 0 5.508 2.605 6.561 5.17 6.561 1.014 0 1.988-.159 2.843-.298v.139c0 1.75-1.133 3.778-3.062 5.309-.616.238-.835.596-.835.934 0 .537.517 1.014 1.292 1.014.318 0 .676-.099 1.054-.298 1.272-.696 3.102-4.374 3.102-6.919 0-.219-.02-.378-.04-.557 1.849-.696 3.638-3.698 3.638-7.197 0-1.829-.358-5.527-3.181-5.527-.557 0-1.173.159-1.869.557-.159-1.71-.258-2.724-1.272-6.044zm-3.857 14.951c-.855-.299-1.173-1.114-1.173-2.227 0-3.499 3.3-9.782 3.837-10.696 1.054 3.181.716 2.664 1.054 4.831-3.102 2.505-3.659 5.388-3.718 8.092zm4.175-4.871c.099.696.318 2.962.477 4.254-.577.318-2.366.855-3.082.855l-.039-.238c0-1.392.954-3.877 2.644-4.871zm1.57-1.193c.398-.239.756-.358 1.074-.358 1.014 0 1.591 1.093 1.591 2.147 0 1.332-.676 1.809-2.187 3.042-.159-1.272-.259-3.559-.478-4.831zm-3.081-12.446c-.318-.935-.716-2.346-.716-3.4 0-.258.04-.497.1-.716h.059c.875 0 1.054 1.472 1.054 1.889 0 .616-.119 1.452-.497 2.227z" fill-rule="nonzero"/></svg>