<?xml version="1.0" encoding="UTF-8" standalone="no"?><!DOCTYPE svg PUBLIC "-//W3C//DTD SVG 1.1//EN" "http://www.w3.org/Graphics/SVG/1.1/DTD/svg11.dtd"><svg width="100%" height="100%" viewBox="0 0 204 150" version="1.1" xmlns="http://www.w3.org/2000/svg" xmlns:xlink="http://www.w3.org/1999/xlink" xml:space="preserve" xmlns:serif="http://www.serif.com/" style="fill-rule:evenodd;clip-rule:evenodd;stroke-linejoin:round;stroke-miterlimit:2;"><rect id="Eyeglasses-Looking-Right" serif:id="Eyeglasses/Looking-Right" x="0" y="0.004" width="203.419" height="149.022" style="fill:none;"/><path d="M70.768,104.681c1.354,-6.381 1.74,-13.149 3.287,-19.917c-11.989,-5.608 -21.077,-19.725 -31.52,-30.167c-3.48,-4.061 -6.961,-8.508 -11.409,-11.602c-2.32,-4.641 -6.574,-5.801 -8.895,-3.674c-8.315,12.762 2.321,43.702 -12.762,43.702c-3.481,0 -6.962,-2.707 -7.735,-8.122c-0,-35.387 11.215,-49.116 21.077,-49.116c19.144,-0 45.83,37.127 64.2,44.862l3.674,-1.353c8.702,-0 22.818,-11.023 55.692,-14.697c-11.022,-14.503 -17.79,-28.232 -32.68,-38.674c-8.702,-3.288 -12.183,-2.321 -13.15,5.027c0,6.575 -1.933,19.338 -8.315,19.338c-5.027,-0 -8.121,-7.155 -4.447,-19.338c0.387,-11.022 9.282,-18.37 21.271,-18.37c17.597,-0 34.807,21.658 44.089,33.067c5.221,7.348 11.022,14.116 16.823,20.884l1.161,-0c3.094,0.193 5.801,2.127 7.541,4.448c16.437,2.707 22.045,15.663 22.045,30.359c-0,9.475 -5.028,43.896 -31.52,43.896c-16.05,-0 -25.912,-6.961 -25.912,-21.851c-0,-0 -3.868,-31.327 8.702,-43.509c-11.989,-0 -23.398,5.027 -33.454,6.768c2.707,4.641 7.735,13.536 7.735,20.304c0,13.923 -5.995,49.504 -23.591,49.504c-23.205,-0 -32.874,-14.117 -32.874,-31.52c0,-3.288 0.774,-6.768 0.967,-10.249Zm103.455,12.376c0.386,-0.194 0.58,-0.387 0.773,-0.967c-3.867,-3.287 -7.155,-10.442 -7.155,-15.277c0,-9.475 5.028,-14.309 9.669,-14.309c2.514,-0 7.542,2.707 8.895,5.801l0,-1.74c0,-6.962 -4.447,-12.183 -17.403,-12.956c-0,0.773 -0.581,0.967 -0.581,1.547c-12.182,5.801 -12.182,31.906 -7.154,35.774l0.773,0.58c3.674,3.674 7.928,4.834 12.183,1.547Zm-68.068,-30.94c-17.403,0 -18.564,4.254 -20.691,21.658c-0.773,5.801 0.967,13.536 3.674,17.597c3.674,2.514 6.768,2.901 10.443,2.901c1.353,-1.547 2.513,-3.094 3.48,-4.641c-0.967,0.193 -1.933,0.386 -2.707,0.386c-5.608,0 -6.575,-5.994 -6.575,-11.795c0,-8.896 5.608,-16.437 10.442,-16.437c1.547,-0 3.094,0.773 4.255,1.934c-0.387,-3.868 -1.161,-7.735 -2.321,-11.603Z" style="fill:#231f20;fill-rule:nonzero;"/></svg>