<?xml version="1.0" encoding="UTF-8" standalone="no"?><!DOCTYPE svg PUBLIC "-//W3C//DTD SVG 1.1//EN" "http://www.w3.org/Graphics/SVG/1.1/DTD/svg11.dtd"><svg width="100%" height="100%" viewBox="0 0 204 150" version="1.1" xmlns="http://www.w3.org/2000/svg" xmlns:xlink="http://www.w3.org/1999/xlink" xml:space="preserve" xmlns:serif="http://www.serif.com/" style="fill-rule:evenodd;clip-rule:evenodd;stroke-linejoin:round;stroke-miterlimit:2;"><rect id="Eyeglasses-Looking-Left" serif:id="Eyeglasses/Looking-Left" x="0" y="0" width="203.419" height="149.022" style="fill:none;"/><path d="M131.681,104.302c-1.354,-6.382 -1.741,-13.15 -3.288,-19.918c11.989,-5.608 21.078,-19.724 31.52,-30.166c3.481,-4.061 6.961,-8.508 11.409,-11.602c2.321,-4.641 6.575,-5.802 8.895,-3.675c8.315,12.763 -2.32,43.703 12.763,43.703c3.481,-0 6.961,-2.707 7.735,-8.122c-0,-35.387 -11.216,-49.117 -21.078,-49.117c-19.144,0 -45.829,37.128 -64.2,44.863l-3.674,-1.354c-8.702,0 -22.818,-11.022 -55.691,-14.696c11.022,-14.503 17.79,-28.233 32.68,-38.675c8.701,-3.287 12.182,-2.32 13.149,5.028c0,6.575 1.934,19.337 8.315,19.337c5.028,0 8.122,-7.155 4.448,-19.337c-0.387,-11.022 -9.282,-18.37 -21.271,-18.37c-17.597,-0 -34.808,21.657 -44.09,33.066c-5.221,7.349 -11.022,14.117 -16.823,20.885l-1.16,-0c-3.094,0.193 -5.801,2.127 -7.542,4.447c-16.437,2.707 -22.044,15.663 -22.044,30.36c-0,9.475 5.027,43.896 31.519,43.896c16.05,-0 25.913,-6.962 25.913,-21.852c-0,0 3.867,-31.326 -8.702,-43.509c11.989,0 23.398,5.028 33.453,6.768c-2.707,4.641 -7.735,13.537 -7.735,20.305c0,13.923 5.995,49.503 23.592,49.503c23.205,0 32.873,-14.116 32.873,-31.52c0,-3.287 -0.773,-6.768 -0.966,-10.248Zm-103.455,12.376c-0.387,-0.194 -0.58,-0.387 -0.774,-0.967c3.868,-3.288 7.155,-10.443 7.155,-15.277c0,-9.475 -5.028,-14.309 -9.669,-14.309c-2.513,-0 -7.541,2.707 -8.895,5.801l0,-1.741c0,-6.961 4.448,-12.182 17.404,-12.956c-0,0.774 0.58,0.967 0.58,1.547c12.182,5.802 12.182,31.907 7.155,35.774l-0.774,0.581c-3.674,3.674 -7.928,4.834 -12.182,1.547Zm68.067,-30.94c17.404,-0 18.564,4.254 20.691,21.658c0.774,5.801 -0.967,13.536 -3.674,17.597c-3.674,2.513 -6.768,2.9 -10.442,2.9c-1.354,-1.547 -2.514,-3.094 -3.481,-4.641c0.967,0.194 1.934,0.387 2.707,0.387c5.608,-0 6.575,-5.995 6.575,-11.796c0,-8.895 -5.608,-16.437 -10.442,-16.437c-1.547,0 -3.094,0.774 -4.254,1.934c0.386,-3.867 1.16,-7.735 2.32,-11.602Z" style="fill:#231f20;fill-rule:nonzero;"/></svg>