<?xml version="1.0" encoding="UTF-8" standalone="no"?><!DOCTYPE svg PUBLIC "-//W3C//DTD SVG 1.1//EN" "http://www.w3.org/Graphics/SVG/1.1/DTD/svg11.dtd"><svg width="100%" height="100%" viewBox="0 0 273 50" version="1.1" xmlns="http://www.w3.org/2000/svg" xmlns:xlink="http://www.w3.org/1999/xlink" xml:space="preserve" xmlns:serif="http://www.serif.com/" style="fill-rule:evenodd;clip-rule:evenodd;stroke-linejoin:round;stroke-miterlimit:1.41421;"><rect id="FIne" x="0" y="0" width="272.516" height="49.077" style="fill:none;"/><path d="M59.171,18.409l0,19.882" style="fill:none;stroke:#000;stroke-width:1.71px;"/><path d="M162.618,18.409l0,19.882" style="fill:none;stroke:#000;stroke-width:1.71px;"/><path d="M210.147,18.409l0,19.882" style="fill:none;stroke:#000;stroke-width:1.71px;"/><g><path d="M110.378,18.409l0,19.882" style="fill:none;stroke:#000;stroke-width:1px;"/><path d="M114.261,18.409l0,19.882" style="fill:none;stroke:#000;stroke-width:1px;"/></g><path d="M7.197,38.291l261.663,0" style="fill:none;stroke:#000;stroke-width:0.47px;"/><path d="M15.559,33.32l253.301,0" style="fill:none;stroke:#000;stroke-width:0.47px;"/><path d="M21.228,28.35l247.632,0" style="fill:none;stroke:#000;stroke-width:0.47px;"/><path d="M32.567,23.38l236.293,0" style="fill:none;stroke:#000;stroke-width:0.47px;"/><path d="M43.905,18.409l224.955,0" style="fill:none;stroke:#000;stroke-width:0.47px;"/><path d="M96.995,6.072c-0.156,1.776 -0.312,4.68 -0.312,6.324c0,1.056 0.096,1.416 0.444,1.416c0.588,0 0.396,-2.088 0.516,-2.544c1.908,-0.876 2.28,-0.324 2.28,-1.644l0,-0.168c0,-0.348 -0.024,-0.516 -0.252,-0.516c-0.444,0 -1.836,0.516 -2.088,0.54l0,-0.156c0,-0.468 0.072,-1.188 0.084,-1.608c0.648,-0.324 1.872,-0.384 2.436,-0.504c0.312,-0.048 0.336,-0.768 0.336,-1.296c0,-0.276 -0.072,-0.468 -0.588,-0.468c-0.936,0 -2.832,0.396 -2.856,0.624Z" style="fill-rule:nonzero;"/><path d="M101.171,7.692c-0.168,0.732 -0.228,1.764 -0.228,2.772c0,1.464 0.108,2.892 0.12,3.36c0.084,0.072 0.204,0.108 0.336,0.108c0.54,0 0.612,-0.42 0.612,-0.864c0,-1.152 -0.072,-2.352 -0.072,-3.528c0,-0.648 0.024,-1.272 0.108,-1.86c-0.12,-0.096 -0.276,-0.144 -0.432,-0.144c-0.168,0 -0.336,0.06 -0.444,0.156Z" style="fill-rule:nonzero;"/><path d="M103.463,13.62c0.06,-0.996 0,-2.148 0.072,-2.652c0.684,0.312 1.332,1.512 2.784,3.096c0.084,0.036 0.24,0.06 0.384,0.06c0.108,0 0.216,-0.012 0.276,-0.06c-0.072,-1.248 -0.144,-1.86 -0.144,-2.712c0,-0.84 0.072,-1.896 0.288,-4.008c-0.084,-0.096 -0.228,-0.144 -0.372,-0.144c-0.132,0 -0.276,0.048 -0.384,0.12c-0.12,0.804 -0.408,1.788 -0.408,3.24c0,0.132 0.012,0.264 0.012,0.408c-1.068,-1.26 -1.872,-2.016 -2.184,-2.34c0.048,-0.252 0.06,-0.456 0.06,-0.612c-0.072,-0.084 -0.192,-0.12 -0.336,-0.12c-0.132,0 -0.276,0.036 -0.372,0.096c-0.432,2.1 -0.456,4.32 -0.456,5.388l0,0.288c0.036,0.12 0.18,0.168 0.336,0.168c0.204,0 0.432,-0.096 0.444,-0.216Z" style="fill-rule:nonzero;"/><path d="M108.647,9.036c0.228,-0.18 0.54,-0.204 0.876,-0.204l0.42,0c0.696,0 1.344,-0.108 1.344,-1.404c0,-0.156 -0.072,-0.264 -0.372,-0.264c-1.032,0 -3.132,0.24 -3.144,0.528c-0.06,0.756 -0.108,2.22 -0.108,3.624c0,0.936 0.024,1.86 0.084,2.508c0.96,-0.012 1.488,-0.036 2.292,-0.06c0.528,-0.024 1.068,0.096 1.068,-1.32c0,-0.096 -0.072,-0.168 -0.36,-0.168l-0.12,0c-0.744,0.036 -1.368,0.108 -1.92,0.108c-0.012,-0.372 -0.036,-0.528 -0.036,-0.828c0.348,-0.096 0.624,-0.204 1.068,-0.324c0.624,-0.096 0.564,-0.096 0.576,-0.744l0,-0.036c0,-0.084 0.012,-0.18 0.012,-0.264c0,-0.156 -0.048,-0.288 -0.3,-0.288c-0.396,0 -0.924,0.228 -1.368,0.348c-0.012,-0.252 -0.024,-0.588 -0.024,-0.864c0,-0.132 0,-0.252 0.012,-0.348Z" style="fill-rule:nonzero;"/><path d="M221.506,11.068c-0.18,-0.048 -0.336,-0.12 -0.492,-0.144c0.048,0.864 0.048,1.296 0.072,1.98c0.3,0.36 0.876,0.456 2.244,0.456c0.3,0 0.624,0 0.996,-0.012c1.26,-0.504 1.896,-2.952 1.896,-5.028c0,-2.712 -0.912,-3.312 -2.304,-3.312c-1.056,0 -1.872,0.612 -2.772,1.704c-0.072,0.504 -0.012,1.056 -0.096,1.932c0.18,-0.096 0.252,-0.132 0.384,-0.24c0.024,0.396 0.096,1.26 0.096,2.028c0,0.228 -0.012,0.444 -0.024,0.636Zm0.612,-3.12c0.672,-0.588 1.536,-0.876 2.076,-0.876c0.72,0 1.02,0.756 1.02,1.524c0,0.996 -0.696,2.76 -2.208,2.76c-0.204,0 -0.42,-0.024 -0.672,-0.084c0.024,-0.324 0.048,-0.744 0.048,-1.176c0,-0.72 -0.06,-1.512 -0.264,-2.148Z" style="fill-rule:nonzero;"/><path d="M227.098,12.34c-0.204,0.336 -0.216,0.576 -0.36,0.876l-0.024,0.048c-0.012,0.024 -0.024,0.06 -0.036,0.084c0,0 0.012,0.012 0.024,0.012l0.192,0c0.18,0 0.36,-0.012 0.528,-0.012l0.144,0c0.324,-0.324 0.288,-0.744 0.48,-1.032c-0.132,0 -0.252,-0.048 -0.384,-0.048l-0.12,0c-0.096,0 -0.18,0 -0.24,0.024l-0.048,0c0,0 -0.012,0.012 -0.024,0.012l-0.024,0c-0.036,0 -0.084,0.024 -0.108,0.036Z" style="fill-rule:nonzero;"/><path d="M232.762,12.988c0.264,-0.24 0.384,-0.576 0.384,-0.888c0,-0.252 -0.084,-0.504 -0.252,-0.696c-0.576,0.168 -1.176,0.24 -1.692,0.24c-1.404,0 -1.776,-0.528 -1.776,-1.536c0,-0.888 0.444,-1.968 1.188,-2.748c0.18,-0.228 0.336,-0.324 0.48,-0.324c0.588,0 0.948,1.848 1.344,1.848c0.456,0 0.516,-0.972 0.516,-1.284c0,-1.632 -0.72,-2.568 -1.596,-2.568c-1.248,0 -2.892,2.184 -2.892,4.812c0,1.104 0.288,2.208 0.972,3.072c0.252,0.312 0.792,0.432 1.392,0.432c0.66,0 1.404,-0.144 1.932,-0.36Z" style="fill-rule:nonzero;"/><path d="M234.046,12.34c-0.204,0.336 -0.216,0.576 -0.36,0.876l-0.024,0.048c-0.012,0.024 -0.024,0.06 -0.036,0.084c0,0 0.012,0.012 0.024,0.012l0.192,0c0.18,0 0.36,-0.012 0.528,-0.012l0.144,0c0.324,-0.324 0.288,-0.744 0.48,-1.032c-0.132,0 -0.252,-0.048 -0.384,-0.048l-0.12,0c-0.096,0 -0.18,0 -0.24,0.024l-0.048,0c0,0 -0.012,0.012 -0.024,0.012l-0.024,0c-0.036,0 -0.084,0.024 -0.108,0.036Z" style="fill-rule:nonzero;"/><path d="M239.374,13.324c0.048,0.012 0.12,0.024 0.168,0.024l0.18,0c0.396,0 0.336,-0.792 0.42,-1.08l0,-0.012c0.132,-0.372 0.732,-0.468 0.792,-0.468l0.012,0l-0.012,0c0.06,-0.024 0.156,-0.072 0.228,-0.072l0.144,-0.036c0.048,0 0.12,-0.036 0.168,-0.036c0,1.512 0.444,1.464 0.408,1.452c0.072,0.048 0.144,0.06 0.252,0.06c0.072,0 0.192,-0.012 0.24,-0.06l0.072,-0.072c0.012,-0.012 0.012,-0.024 0.024,-0.036l0,-0.012c0.012,-0.012 0.024,-0.06 0.024,-0.072l0,-0.012c-0.264,-2.82 -0.348,-6.192 -1.02,-6.192c-0.768,0 -1.68,2.844 -1.86,3.576c-0.168,0.672 -0.336,1.416 -0.336,2.028l0,0.516c0,0.036 0.012,0.144 0.024,0.18l0,0.036c0,0.096 0.036,0.252 0.072,0.288Zm1.644,-4.416c0.276,0.276 0.204,0.816 0.204,0.84l0,0.192c0,0.228 -0.132,0.456 -0.336,0.552l-0.18,0.072c-0.084,0 -0.168,0.036 -0.252,0.036l-0.024,0c0,-0.756 0.42,-1.488 0.42,-1.44c0.072,-0.108 0.108,-0.192 0.168,-0.252Z" style="fill-rule:nonzero;"/><path d="M243.202,7.024c-0.12,1.08 -0.252,2.292 -0.252,3.456c0,1.008 0.096,1.98 0.384,2.796c0.024,0.084 0.096,0.108 0.384,0.108c0.372,0 1.092,-0.048 2.52,-0.084c-0.024,-0.408 -0.036,-0.708 -0.036,-0.936c0,-0.312 0.012,-0.492 0.012,-0.636l0,-0.12c-0.504,0.024 -1.068,0.06 -1.512,0.06c-0.516,0 -0.888,-0.048 -0.888,-0.264c-0.06,-0.396 -0.084,-0.852 -0.084,-1.32c0,-1.284 0.168,-2.64 0.168,-2.964c-0.096,-0.108 -0.264,-0.18 -0.432,-0.18c-0.096,0 -0.192,0.024 -0.264,0.084Z" style="fill-rule:nonzero;"/><path d="M250.942,5.62c-0.156,1.776 -0.312,4.68 -0.312,6.324c0,1.056 0.096,1.416 0.444,1.416c0.588,0 0.396,-2.088 0.516,-2.544c1.908,-0.876 2.28,-0.324 2.28,-1.644l0,-0.168c0,-0.348 -0.024,-0.516 -0.252,-0.516c-0.444,0 -1.836,0.516 -2.088,0.54l0,-0.156c0,-0.468 0.072,-1.188 0.084,-1.608c0.648,-0.324 1.872,-0.384 2.436,-0.504c0.312,-0.048 0.336,-0.768 0.336,-1.296c0,-0.276 -0.072,-0.468 -0.588,-0.468c-0.936,0 -2.832,0.396 -2.856,0.624Z" style="fill-rule:nonzero;"/><path d="M255.118,7.24c-0.168,0.732 -0.228,1.764 -0.228,2.772c0,1.464 0.108,2.892 0.12,3.36c0.084,0.072 0.204,0.108 0.336,0.108c0.54,0 0.612,-0.42 0.612,-0.864c0,-1.152 -0.072,-2.352 -0.072,-3.528c0,-0.648 0.024,-1.272 0.108,-1.86c-0.12,-0.096 -0.276,-0.144 -0.432,-0.144c-0.168,0 -0.336,0.06 -0.444,0.156Z" style="fill-rule:nonzero;"/><path d="M257.41,13.168c0.06,-0.996 0,-2.148 0.072,-2.652c0.684,0.312 1.332,1.512 2.784,3.096c0.084,0.036 0.24,0.06 0.384,0.06c0.108,0 0.216,-0.012 0.276,-0.06c-0.072,-1.248 -0.144,-1.86 -0.144,-2.712c0,-0.84 0.072,-1.896 0.288,-4.008c-0.084,-0.096 -0.228,-0.144 -0.372,-0.144c-0.132,0 -0.276,0.048 -0.384,0.12c-0.12,0.804 -0.408,1.788 -0.408,3.24c0,0.132 0.012,0.264 0.012,0.408c-1.068,-1.26 -1.872,-2.016 -2.184,-2.34c0.048,-0.252 0.06,-0.456 0.06,-0.612c-0.072,-0.084 -0.192,-0.12 -0.336,-0.12c-0.132,0 -0.276,0.036 -0.372,0.096c-0.432,2.1 -0.456,4.32 -0.456,5.388l0,0.288c0.036,0.12 0.18,0.168 0.336,0.168c0.204,0 0.432,-0.096 0.444,-0.216Z" style="fill-rule:nonzero;"/><path d="M262.594,8.584c0.228,-0.18 0.54,-0.204 0.876,-0.204l0.42,0c0.696,0 1.344,-0.108 1.344,-1.404c0,-0.156 -0.072,-0.264 -0.372,-0.264c-1.032,0 -3.132,0.24 -3.144,0.528c-0.06,0.756 -0.108,2.22 -0.108,3.624c0,0.936 0.024,1.86 0.084,2.508c0.96,-0.012 1.488,-0.036 2.292,-0.06c0.528,-0.024 1.068,0.096 1.068,-1.32c0,-0.096 -0.072,-0.168 -0.36,-0.168l-0.12,0c-0.744,0.036 -1.368,0.108 -1.92,0.108c-0.012,-0.372 -0.036,-0.528 -0.036,-0.828c0.348,-0.096 0.624,-0.204 1.068,-0.324c0.624,-0.096 0.564,-0.096 0.576,-0.744l0,-0.036c0,-0.084 0.012,-0.18 0.012,-0.264c0,-0.156 -0.048,-0.288 -0.3,-0.288c-0.396,0 -0.924,0.228 -1.368,0.348c-0.012,-0.252 -0.024,-0.588 -0.024,-0.864c0,-0.132 0,-0.252 0.012,-0.348Z" style="fill-rule:nonzero;"/><g><path d="M265.106,18.423l0,19.882" style="fill:none;stroke:#000;stroke-width:0.41px;"/><path d="M268.057,18.423l0,19.882" style="fill:none;stroke:#000;stroke-width:0.41px;"/></g></svg>