<svg viewBox="0 0 5 15" fill-rule="evenodd" clip-rule="evenodd" stroke-linejoin="round" stroke-miterlimit="1.414">
  <path fill="none" d="M0 0h4.61v14.447H0z"/>
  <path d="M1.477.133c0-.039-.04-.059-.139-.059C1.021.074.227.391.227.669v.02c.02.773.04 1.547.04 2.321 0 2.757-.139 5.415-.139 8.173 0 .575-.04 2.936.179 2.936.714 0 4.126-3.789 4.126-7.181 0-1.012-.337-1.706-1.151-1.706-.476 0-1.091.257-1.864.753.059-1.269.119-2.459.119-3.729 0-.694-.02-1.409-.06-2.123zM1.318 9.06c.159-.377.774-1.408 1.091-1.408.159 0 .238.178.258.555v.06c0 .555-.476 1.686-1.369 2.38 0-.575 0-1.131.02-1.587z" fill-rule="nonzero"/>
</svg>
