<svg viewBox="0 0 126 126" version="1.1">
    <g transform="matrix(1,0,0,1,-65.2657,-256.477)">
        <g transform="matrix(1,0,0,1,-6.7,183.5)">
            <g transform="matrix(175,0,0,175,65.6425,196.194)">
                <path d="M0.752,-0.346C0.752,-0.298 0.743,-0.252 0.725,-0.209C0.707,-0.166 0.681,-0.127 0.647,-0.093C0.613,-0.059 0.574,-0.033 0.531,-0.015C0.488,0.003 0.442,0.012 0.394,0.012C0.346,0.012 0.301,0.003 0.257,-0.015C0.214,-0.033 0.175,-0.059 0.141,-0.093C0.107,-0.127 0.081,-0.166 0.063,-0.209C0.045,-0.252 0.036,-0.298 0.036,-0.346C0.036,-0.394 0.045,-0.44 0.063,-0.483C0.081,-0.526 0.107,-0.565 0.141,-0.599C0.175,-0.633 0.214,-0.659 0.257,-0.677C0.301,-0.695 0.346,-0.704 0.394,-0.704C0.442,-0.704 0.488,-0.695 0.531,-0.677C0.574,-0.659 0.613,-0.633 0.647,-0.599C0.681,-0.565 0.707,-0.526 0.725,-0.483C0.743,-0.44 0.752,-0.394 0.752,-0.346ZM0.719,-0.347C0.719,-0.391 0.711,-0.432 0.695,-0.472C0.679,-0.511 0.655,-0.546 0.624,-0.577C0.593,-0.608 0.558,-0.632 0.519,-0.648C0.48,-0.664 0.438,-0.672 0.394,-0.672C0.35,-0.672 0.308,-0.664 0.269,-0.647C0.23,-0.631 0.195,-0.608 0.164,-0.577C0.133,-0.546 0.11,-0.511 0.093,-0.472C0.077,-0.432 0.069,-0.391 0.069,-0.347C0.069,-0.303 0.077,-0.262 0.093,-0.222C0.11,-0.183 0.133,-0.148 0.164,-0.117C0.195,-0.086 0.23,-0.063 0.269,-0.046C0.308,-0.03 0.35,-0.022 0.394,-0.022C0.438,-0.022 0.48,-0.03 0.519,-0.046C0.558,-0.062 0.593,-0.086 0.624,-0.117C0.655,-0.148 0.679,-0.183 0.695,-0.222C0.711,-0.262 0.719,-0.303 0.719,-0.347ZM0.283,-0.361C0.302,-0.375 0.321,-0.385 0.341,-0.391C0.36,-0.398 0.38,-0.401 0.401,-0.401C0.448,-0.401 0.486,-0.388 0.514,-0.362C0.543,-0.337 0.557,-0.303 0.557,-0.261C0.557,-0.216 0.54,-0.18 0.504,-0.153C0.469,-0.125 0.422,-0.112 0.363,-0.112C0.318,-0.112 0.281,-0.121 0.252,-0.138C0.224,-0.156 0.21,-0.179 0.21,-0.207C0.21,-0.223 0.215,-0.236 0.225,-0.247C0.235,-0.257 0.248,-0.262 0.263,-0.262C0.278,-0.262 0.29,-0.258 0.3,-0.248C0.31,-0.239 0.315,-0.228 0.315,-0.214C0.315,-0.209 0.313,-0.203 0.31,-0.195C0.307,-0.187 0.305,-0.181 0.305,-0.178C0.305,-0.169 0.31,-0.161 0.321,-0.155C0.331,-0.149 0.344,-0.146 0.359,-0.146C0.386,-0.146 0.406,-0.156 0.421,-0.176C0.436,-0.195 0.444,-0.223 0.444,-0.258C0.444,-0.288 0.436,-0.313 0.421,-0.332C0.406,-0.351 0.387,-0.361 0.363,-0.361C0.348,-0.361 0.335,-0.357 0.322,-0.348C0.308,-0.339 0.296,-0.326 0.284,-0.309C0.278,-0.312 0.272,-0.315 0.265,-0.318C0.259,-0.32 0.252,-0.323 0.245,-0.324C0.251,-0.368 0.256,-0.412 0.259,-0.455C0.263,-0.498 0.265,-0.541 0.266,-0.583C0.283,-0.579 0.303,-0.576 0.324,-0.574C0.345,-0.572 0.378,-0.571 0.423,-0.571C0.459,-0.571 0.486,-0.572 0.503,-0.574C0.52,-0.576 0.535,-0.579 0.549,-0.583C0.539,-0.542 0.524,-0.515 0.503,-0.5C0.483,-0.485 0.443,-0.478 0.382,-0.478L0.376,-0.478C0.361,-0.478 0.347,-0.478 0.333,-0.479C0.32,-0.479 0.307,-0.48 0.294,-0.481L0.283,-0.361Z" style="fill:rgb(35,31,32);fill-rule:nonzero;"/>
            </g>
        </g>
    </g>
</svg>
