<svg viewBox="0 0 126 126" version="1.1">
    <g transform="matrix(1,0,0,1,-641.366,-256.743)">
        <g transform="matrix(1,0,0,1,569.5,183.767)">
            <g transform="matrix(175,0,0,175,65.5425,196.194)">
                <path d="M0.752,-0.346C0.752,-0.298 0.743,-0.252 0.725,-0.209C0.707,-0.166 0.681,-0.127 0.647,-0.093C0.613,-0.059 0.574,-0.033 0.531,-0.015C0.488,0.003 0.442,0.012 0.394,0.012C0.346,0.012 0.301,0.003 0.257,-0.015C0.214,-0.033 0.175,-0.059 0.141,-0.093C0.107,-0.127 0.081,-0.166 0.063,-0.209C0.045,-0.252 0.036,-0.298 0.036,-0.346C0.036,-0.394 0.045,-0.44 0.063,-0.483C0.081,-0.526 0.107,-0.565 0.141,-0.599C0.175,-0.633 0.214,-0.659 0.257,-0.677C0.301,-0.695 0.346,-0.704 0.394,-0.704C0.442,-0.704 0.488,-0.695 0.531,-0.677C0.574,-0.659 0.613,-0.633 0.647,-0.599C0.681,-0.565 0.707,-0.526 0.725,-0.483C0.743,-0.44 0.752,-0.394 0.752,-0.346ZM0.719,-0.347C0.719,-0.391 0.711,-0.432 0.695,-0.472C0.679,-0.511 0.655,-0.546 0.624,-0.577C0.593,-0.608 0.558,-0.632 0.519,-0.648C0.48,-0.664 0.438,-0.672 0.394,-0.672C0.35,-0.672 0.308,-0.664 0.269,-0.647C0.23,-0.631 0.195,-0.608 0.164,-0.577C0.133,-0.546 0.11,-0.511 0.093,-0.472C0.077,-0.432 0.069,-0.391 0.069,-0.347C0.069,-0.303 0.077,-0.262 0.093,-0.222C0.11,-0.183 0.133,-0.148 0.164,-0.117C0.195,-0.086 0.23,-0.063 0.269,-0.046C0.308,-0.03 0.35,-0.022 0.394,-0.022C0.438,-0.022 0.48,-0.03 0.519,-0.046C0.558,-0.062 0.593,-0.086 0.624,-0.117C0.655,-0.148 0.679,-0.183 0.695,-0.222C0.711,-0.262 0.719,-0.303 0.719,-0.347ZM0.563,-0.29L0.559,-0.118L0.228,-0.118L0.228,-0.135C0.228,-0.171 0.236,-0.202 0.253,-0.23C0.27,-0.258 0.303,-0.29 0.351,-0.326C0.391,-0.355 0.418,-0.38 0.431,-0.4C0.444,-0.421 0.45,-0.444 0.45,-0.469C0.45,-0.492 0.444,-0.512 0.431,-0.527C0.419,-0.542 0.403,-0.55 0.385,-0.55C0.373,-0.55 0.362,-0.546 0.352,-0.539C0.342,-0.531 0.337,-0.523 0.337,-0.514C0.337,-0.511 0.338,-0.505 0.341,-0.498C0.344,-0.49 0.345,-0.484 0.345,-0.479C0.345,-0.466 0.34,-0.455 0.331,-0.447C0.322,-0.438 0.31,-0.433 0.297,-0.433C0.282,-0.433 0.27,-0.438 0.261,-0.447C0.252,-0.456 0.248,-0.469 0.248,-0.485C0.248,-0.514 0.261,-0.538 0.286,-0.556C0.312,-0.574 0.345,-0.583 0.386,-0.583C0.436,-0.583 0.476,-0.572 0.506,-0.55C0.537,-0.527 0.552,-0.498 0.552,-0.461C0.552,-0.429 0.543,-0.402 0.525,-0.38C0.508,-0.358 0.473,-0.335 0.422,-0.311C0.369,-0.286 0.334,-0.266 0.318,-0.252C0.301,-0.238 0.29,-0.221 0.285,-0.203L0.473,-0.203C0.496,-0.203 0.511,-0.208 0.519,-0.219C0.527,-0.23 0.532,-0.254 0.533,-0.29L0.563,-0.29Z" style="fill:rgb(35,31,32);fill-rule:nonzero;"/>
            </g>
        </g>
    </g>
</svg>
