<svg  viewBox="0 0 126 126" version="1.1">
    <g transform="matrix(1,0,0,1,-833.266,-257.427)">
        <g transform="matrix(1,0,0,1,761.3,184.4)">
            <g transform="matrix(175,0,0,175,65.6425,196.244)">
                <path d="M0.752,-0.346C0.752,-0.298 0.743,-0.252 0.725,-0.209C0.707,-0.166 0.681,-0.127 0.647,-0.093C0.613,-0.059 0.574,-0.033 0.531,-0.015C0.488,0.003 0.442,0.012 0.394,0.012C0.346,0.012 0.301,0.003 0.257,-0.015C0.214,-0.033 0.175,-0.059 0.141,-0.093C0.107,-0.127 0.081,-0.166 0.063,-0.209C0.045,-0.252 0.036,-0.298 0.036,-0.346C0.036,-0.394 0.045,-0.44 0.063,-0.483C0.081,-0.526 0.107,-0.565 0.141,-0.599C0.175,-0.633 0.214,-0.659 0.257,-0.677C0.301,-0.695 0.346,-0.704 0.394,-0.704C0.442,-0.704 0.488,-0.695 0.531,-0.677C0.574,-0.659 0.613,-0.633 0.647,-0.599C0.681,-0.565 0.707,-0.526 0.725,-0.483C0.743,-0.44 0.752,-0.394 0.752,-0.346ZM0.719,-0.347C0.719,-0.391 0.711,-0.432 0.695,-0.472C0.679,-0.511 0.655,-0.546 0.624,-0.577C0.593,-0.608 0.558,-0.632 0.519,-0.648C0.48,-0.664 0.438,-0.672 0.394,-0.672C0.35,-0.672 0.308,-0.664 0.269,-0.647C0.23,-0.631 0.195,-0.608 0.164,-0.577C0.133,-0.546 0.11,-0.511 0.093,-0.472C0.077,-0.432 0.069,-0.391 0.069,-0.347C0.069,-0.303 0.077,-0.262 0.093,-0.222C0.11,-0.183 0.133,-0.148 0.164,-0.117C0.195,-0.086 0.23,-0.063 0.269,-0.046C0.308,-0.03 0.35,-0.022 0.394,-0.022C0.438,-0.022 0.48,-0.03 0.519,-0.046C0.558,-0.062 0.593,-0.086 0.624,-0.117C0.655,-0.148 0.679,-0.183 0.695,-0.222C0.711,-0.262 0.719,-0.303 0.719,-0.347ZM0.535,-0.118L0.269,-0.118L0.269,-0.148C0.308,-0.149 0.333,-0.152 0.342,-0.159C0.351,-0.166 0.356,-0.183 0.356,-0.208L0.356,-0.436C0.356,-0.453 0.353,-0.465 0.348,-0.472C0.343,-0.479 0.335,-0.482 0.323,-0.482L0.32,-0.482L0.26,-0.479L0.26,-0.509C0.292,-0.51 0.32,-0.517 0.346,-0.529C0.372,-0.541 0.396,-0.559 0.416,-0.583L0.448,-0.583L0.448,-0.208C0.451,-0.189 0.46,-0.174 0.474,-0.165C0.488,-0.155 0.508,-0.15 0.535,-0.148L0.535,-0.118Z" style="fill:rgb(35,31,32);fill-rule:nonzero;"/>
            </g>
        </g>
    </g>
</svg>
