<svg viewBox="0 0 126 126" version="1.1">
    <g transform="matrix(1,0,0,1,-833.366,-65.4766)">
        <g transform="matrix(1,0,0,1,761.5,-7.5)">
            <g transform="matrix(175,0,0,175,65.5425,196.194)">
                <path d="M0.752,-0.346C0.752,-0.298 0.743,-0.252 0.725,-0.209C0.707,-0.166 0.681,-0.127 0.647,-0.093C0.613,-0.059 0.574,-0.033 0.531,-0.015C0.488,0.003 0.442,0.012 0.394,0.012C0.346,0.012 0.301,0.003 0.257,-0.015C0.214,-0.033 0.175,-0.059 0.141,-0.093C0.107,-0.127 0.081,-0.166 0.063,-0.209C0.045,-0.252 0.036,-0.298 0.036,-0.346C0.036,-0.394 0.045,-0.44 0.063,-0.483C0.081,-0.526 0.107,-0.565 0.141,-0.599C0.175,-0.633 0.214,-0.659 0.257,-0.677C0.301,-0.695 0.346,-0.704 0.394,-0.704C0.442,-0.704 0.488,-0.695 0.531,-0.677C0.574,-0.659 0.613,-0.633 0.647,-0.599C0.681,-0.565 0.707,-0.526 0.725,-0.483C0.743,-0.44 0.752,-0.394 0.752,-0.346ZM0.719,-0.347C0.719,-0.391 0.711,-0.432 0.695,-0.472C0.679,-0.511 0.655,-0.546 0.624,-0.577C0.593,-0.608 0.558,-0.632 0.519,-0.648C0.48,-0.664 0.438,-0.672 0.394,-0.672C0.35,-0.672 0.308,-0.664 0.269,-0.647C0.23,-0.631 0.195,-0.608 0.164,-0.577C0.133,-0.546 0.11,-0.511 0.093,-0.472C0.077,-0.432 0.069,-0.391 0.069,-0.347C0.069,-0.303 0.077,-0.262 0.093,-0.222C0.11,-0.183 0.133,-0.148 0.164,-0.117C0.195,-0.086 0.23,-0.063 0.269,-0.046C0.308,-0.03 0.35,-0.022 0.394,-0.022C0.438,-0.022 0.48,-0.03 0.519,-0.046C0.558,-0.062 0.593,-0.086 0.624,-0.117C0.655,-0.148 0.679,-0.183 0.695,-0.222C0.711,-0.262 0.719,-0.303 0.719,-0.347ZM0.302,-0.332C0.32,-0.357 0.339,-0.375 0.36,-0.386C0.381,-0.397 0.404,-0.403 0.431,-0.403C0.471,-0.403 0.504,-0.39 0.53,-0.364C0.557,-0.338 0.57,-0.306 0.57,-0.267C0.57,-0.222 0.553,-0.185 0.52,-0.156C0.487,-0.126 0.445,-0.112 0.394,-0.112C0.334,-0.112 0.286,-0.132 0.252,-0.173C0.217,-0.214 0.2,-0.27 0.2,-0.342C0.2,-0.413 0.219,-0.471 0.257,-0.516C0.295,-0.561 0.343,-0.583 0.403,-0.583C0.444,-0.583 0.478,-0.574 0.504,-0.557C0.53,-0.539 0.543,-0.517 0.543,-0.49C0.543,-0.474 0.539,-0.462 0.53,-0.452C0.521,-0.443 0.51,-0.438 0.495,-0.438C0.481,-0.438 0.47,-0.442 0.461,-0.451C0.453,-0.46 0.448,-0.472 0.448,-0.485C0.448,-0.488 0.449,-0.491 0.449,-0.494C0.45,-0.497 0.451,-0.5 0.452,-0.502C0.453,-0.506 0.454,-0.509 0.454,-0.511C0.455,-0.514 0.455,-0.516 0.455,-0.518C0.455,-0.527 0.45,-0.535 0.441,-0.541C0.431,-0.548 0.419,-0.551 0.406,-0.551C0.371,-0.551 0.345,-0.533 0.328,-0.498C0.31,-0.462 0.302,-0.409 0.302,-0.338L0.302,-0.332ZM0.478,-0.255C0.478,-0.285 0.471,-0.31 0.456,-0.328C0.441,-0.347 0.422,-0.356 0.398,-0.356C0.371,-0.356 0.349,-0.346 0.333,-0.326C0.316,-0.306 0.307,-0.28 0.307,-0.248C0.307,-0.217 0.315,-0.192 0.331,-0.172C0.347,-0.153 0.368,-0.143 0.393,-0.143C0.418,-0.143 0.439,-0.153 0.454,-0.174C0.47,-0.195 0.478,-0.222 0.478,-0.255Z" style="fill:rgb(35,31,32);fill-rule:nonzero;"/>
            </g>
        </g>
    </g>
</svg>
