<svg viewBox="0 0 126 126" version="1.1">
    <g transform="matrix(1,0,0,1,-449.366,-257.11)">
        <g transform="matrix(1,0,0,1,377.5,184.133)">
            <g transform="matrix(175,0,0,175,65.5425,196.194)">
                <path d="M0.752,-0.346C0.752,-0.298 0.743,-0.252 0.725,-0.209C0.707,-0.166 0.681,-0.127 0.647,-0.093C0.613,-0.059 0.574,-0.033 0.531,-0.015C0.488,0.003 0.442,0.012 0.394,0.012C0.346,0.012 0.301,0.003 0.257,-0.015C0.214,-0.033 0.175,-0.059 0.141,-0.093C0.107,-0.127 0.081,-0.166 0.063,-0.209C0.045,-0.252 0.036,-0.298 0.036,-0.346C0.036,-0.394 0.045,-0.44 0.063,-0.483C0.081,-0.526 0.107,-0.565 0.141,-0.599C0.175,-0.633 0.214,-0.659 0.257,-0.677C0.301,-0.695 0.346,-0.704 0.394,-0.704C0.442,-0.704 0.488,-0.695 0.531,-0.677C0.574,-0.659 0.613,-0.633 0.647,-0.599C0.681,-0.565 0.707,-0.526 0.725,-0.483C0.743,-0.44 0.752,-0.394 0.752,-0.346ZM0.719,-0.347C0.719,-0.391 0.711,-0.432 0.695,-0.472C0.679,-0.511 0.655,-0.546 0.624,-0.577C0.593,-0.608 0.558,-0.632 0.519,-0.648C0.48,-0.664 0.438,-0.672 0.394,-0.672C0.35,-0.672 0.308,-0.664 0.269,-0.647C0.23,-0.631 0.195,-0.608 0.164,-0.577C0.133,-0.546 0.11,-0.511 0.093,-0.472C0.077,-0.432 0.069,-0.391 0.069,-0.347C0.069,-0.303 0.077,-0.262 0.093,-0.222C0.11,-0.183 0.133,-0.148 0.164,-0.117C0.195,-0.086 0.23,-0.063 0.269,-0.046C0.308,-0.03 0.35,-0.022 0.394,-0.022C0.438,-0.022 0.48,-0.03 0.519,-0.046C0.558,-0.062 0.593,-0.086 0.624,-0.117C0.655,-0.148 0.679,-0.183 0.695,-0.222C0.711,-0.262 0.719,-0.303 0.719,-0.347ZM0.425,-0.373C0.47,-0.371 0.505,-0.36 0.531,-0.338C0.557,-0.316 0.57,-0.288 0.57,-0.253C0.57,-0.212 0.552,-0.178 0.517,-0.151C0.482,-0.125 0.436,-0.112 0.379,-0.112C0.333,-0.112 0.295,-0.121 0.266,-0.14C0.238,-0.159 0.223,-0.183 0.223,-0.213C0.223,-0.229 0.228,-0.243 0.237,-0.252C0.247,-0.261 0.26,-0.266 0.277,-0.266C0.292,-0.266 0.304,-0.262 0.313,-0.252C0.322,-0.243 0.327,-0.231 0.327,-0.217C0.327,-0.215 0.327,-0.213 0.326,-0.21C0.326,-0.208 0.325,-0.204 0.324,-0.2C0.323,-0.197 0.322,-0.195 0.321,-0.192C0.32,-0.189 0.32,-0.186 0.32,-0.183C0.32,-0.174 0.325,-0.166 0.334,-0.16C0.344,-0.153 0.356,-0.15 0.37,-0.15C0.397,-0.15 0.419,-0.16 0.437,-0.18C0.454,-0.201 0.463,-0.227 0.463,-0.258C0.463,-0.287 0.455,-0.311 0.439,-0.327C0.424,-0.344 0.402,-0.352 0.374,-0.352L0.323,-0.352L0.323,-0.382L0.346,-0.382C0.378,-0.382 0.402,-0.39 0.42,-0.405C0.437,-0.42 0.446,-0.442 0.446,-0.47C0.446,-0.494 0.44,-0.513 0.427,-0.527C0.415,-0.541 0.398,-0.548 0.377,-0.548C0.364,-0.548 0.354,-0.545 0.345,-0.54C0.336,-0.534 0.332,-0.527 0.331,-0.518C0.331,-0.517 0.332,-0.515 0.333,-0.513C0.334,-0.509 0.335,-0.507 0.335,-0.507C0.336,-0.504 0.337,-0.501 0.337,-0.499C0.338,-0.496 0.338,-0.493 0.338,-0.491C0.338,-0.479 0.333,-0.468 0.325,-0.46C0.316,-0.451 0.305,-0.447 0.293,-0.447C0.279,-0.447 0.268,-0.451 0.26,-0.46C0.251,-0.469 0.247,-0.48 0.247,-0.494C0.247,-0.521 0.26,-0.542 0.286,-0.559C0.312,-0.575 0.346,-0.583 0.389,-0.583C0.435,-0.583 0.472,-0.573 0.499,-0.554C0.526,-0.535 0.539,-0.51 0.539,-0.477C0.539,-0.452 0.529,-0.43 0.51,-0.413C0.49,-0.396 0.462,-0.383 0.425,-0.376L0.425,-0.373Z" style="fill:rgb(35,31,32);fill-rule:nonzero;"/>
            </g>
        </g>
    </g>
</svg>
