<?xml version="1.0" encoding="UTF-8" standalone="no"?><<svg width="100%" height="100%" viewBox="0 0 8 10" version="1.1" xmlns="http://www.w3.org/2000/svg" xmlns:xlink="http://www.w3.org/1999/xlink" xml:space="preserve" xmlns:serif="http://www.serif.com/" style="fill-rule:evenodd;clip-rule:evenodd;stroke-linejoin:round;stroke-miterlimit:1.41421;"><rect id="Up-Bow-Markings" serif:id="Up Bow Markings" x="0" y="0" width="7.794" height="9.531" style="fill:none;"/><path d="M0.095,2.941c0.139,0.08 0.218,0.199 0.298,0.338l0.178,0.238c0.814,1.289 2.282,5.753 2.341,5.812l0.04,0.04c0.178,0.059 0.396,0.099 0.635,0.099c0.476,0 0.654,-0.317 0.634,-0.298c0,-0.793 2.143,-4.939 2.381,-5.415c0.337,-0.714 0.674,-1.309 0.972,-1.924l0.178,-0.298c0.02,-0.02 0.02,-0.04 0.02,-0.099c0,-0.258 -0.258,-0.675 -0.555,-0.893l-0.06,-0.059c-0.099,-0.06 -0.158,-0.1 -0.218,-0.1c-0.04,0 -0.059,0 -0.079,0.02l-0.06,0.06c-0.059,0.139 -0.158,0.317 -0.297,0.496l-0.06,0.119c-0.793,1.507 -1.646,3.531 -2.281,4.8c0,0.06 -0.06,0.139 -0.06,0.199c-0.238,-0.179 -0.575,-1.448 -0.773,-1.984c-0.377,-0.853 -0.794,-1.984 -1.25,-2.678l-0.179,-0.357c-0.258,-0.397 -0.615,-1.012 -0.853,-1.012c-0.019,0 -0.039,0.02 -0.099,0.08l-0.079,0.079c-0.417,0.754 -0.814,2.063 -0.814,2.579c0,0.059 0,0.099 0.02,0.119l0,0.02l0.02,0.019Z" style="fill-rule:nonzero;"/></svg>
