<?xml version="1.0" encoding="UTF-8" standalone="no"?><!DOCTYPE svg PUBLIC "-//W3C//DTD SVG 1.1//EN" "http://www.w3.org/Graphics/SVG/1.1/DTD/svg11.dtd"><svg width="100%" height="100%" viewBox="0 0 640 512" version="1.1" xmlns="http://www.w3.org/2000/svg" xmlns:xlink="http://www.w3.org/1999/xlink" xml:space="preserve" xmlns:serif="http://www.serif.com/" style="fill-rule:evenodd;clip-rule:evenodd;stroke-linejoin:round;stroke-miterlimit:2;"><path d="M275.012,451.081l-0.09,35.401c-0.025,9.78 -8.613,17.679 -19.192,17.652l-229.77,-0.581c-10.579,-0.027 -19.127,-7.97 -19.102,-17.749l0.089,-35.401c0.025,-9.78 8.613,-17.679 19.192,-17.652l229.77,0.581c10.579,0.027 19.127,7.97 19.103,17.749Zm115.243,-141.313l-0.09,35.401c-0.025,9.779 -8.613,17.679 -19.192,17.652l-344.654,-0.872c-10.579,-0.027 -19.128,-7.97 -19.103,-17.749l0.089,-35.401c0.025,-9.78 8.614,-17.679 19.193,-17.652l344.654,0.872c10.579,0.026 19.127,7.969 19.103,17.749Zm115.243,-141.314l-0.09,35.401c-0.025,9.78 -8.613,17.679 -19.192,17.652l-459.539,-1.163c-10.579,-0.026 -19.128,-7.969 -19.103,-17.748l0.09,-35.402c0.025,-9.779 8.613,-17.678 19.192,-17.652l459.539,1.163c10.579,0.027 19.127,7.97 19.103,17.749Zm115.243,-141.313l-0.09,35.401c-0.025,9.779 -8.613,17.679 -19.192,17.652l-574.424,-1.454c-10.579,-0.026 -19.127,-7.969 -19.103,-17.749l0.09,-35.401c0.025,-9.779 8.613,-17.679 19.192,-17.652l574.424,1.454c10.579,0.026 19.127,7.969 19.103,17.749Z" style="fill-rule:nonzero;"/></svg>