<svg viewBox="0 0 24 24" xmlns="http://www.w3.org/2000/svg"><path d="m8.128 0h11.011c.176 0 .264.09.264.267v4.124c0 .18-.09.267-.264.267h-9.717c-.177 0-.265.09-.265.27v4.491c.045.18.135.27.266.27h8.617c.179 0 .269.09.269.27v3.982c0 .18-.09.27-.269.27h-8.611c-.134 0-.221.09-.266.27v4.519c0 .179.09.269.265.269h10.046c.135 0 .224.075.27.21.06.225.104.494.119.837.015.346-.015.72-.119 1.154s-.285.837-.54 1.197c-.254.374-.673.689-1.242.944-.585.254-1.288.389-2.096.389h-11.467c-.178 0-.266-.091-.266-.269v-19.734c0-1.107.389-2.052 1.164-2.829.779-.779 1.72-1.168 2.831-1.168z"/></svg>