<svg viewBox="0 0 24 24" xmlns="http://www.w3.org/2000/svg"><path d="m3.771 10.512h-1.209c-.419 0-.653.092-.653.092v-2.561h-1.909v7.914h1.908v-3.163c0-.325.232-.558.513-.558h1.116c.283 0 .523.232.523.512v3.205h1.902v-3.445c-.001-1.451-.975-2.006-2.188-2.006m18.292 0v3.176c0 .279-.236.51-.517.51h-1.116c-.27 0-.509-.23-.509-.51v-3.168h-1.902v3.352c0 1.348.884 2.094 2.188 2.094h1.872c1.213 0 1.918-.834 1.918-2.092v-3.352h-1.918zm-10.756 3.16c0 .285-.233.517-.513.517h-1.117c-.278 0-.512-.234-.512-.515v-3.162h-1.906v3.355c0 1.349.883 2.098 2.187 2.098h1.861c1.209 0 1.907-.833 1.907-2.09v-3.355h-1.907v3.168zm3.395 2.285h1.909v-7.902h-1.904v7.91z"/></svg>