<svg viewBox="0 0 24 24" xmlns="http://www.w3.org/2000/svg"><path d="m16.015 14.378c0-.32-.135-.496-.344-.622-.21-.12-.464-.135-.81-.135h-1.543v2.82h.675v-1.027h.72c.24 0 .39.024.478.125.12.13.104.38.104.55v.35h.66v-.555c-.002-.25-.017-.376-.108-.516-.06-.08-.18-.18-.33-.234l.02-.008c.18-.072.48-.297.48-.747zm-.87.407-.028-.002c-.09.053-.195.058-.33.058h-.81v-.63h.824c.12 0 .24 0 .33.05.098.048.156.147.15.255 0 .12-.045.215-.134.27zm5.152 1.052h-1.297v.6h1.304c.676 0 1.05-.278 1.05-.884 0-.28-.066-.448-.187-.582-.153-.133-.392-.193-.73-.207l-.376-.015c-.104 0-.18 0-.255-.03-.09-.03-.15-.105-.15-.21 0-.09.017-.166.09-.21.083-.046.177-.066.272-.06h1.23v-.602h-1.35c-.704 0-.958.437-.958.84 0 .9.776.855 1.407.87.104 0 .18.015.225.06.046.03.082.106.082.18 0 .077-.035.15-.08.18-.06.053-.15.07-.277.07z"/><path d="m0 0v10.096l.81-1.876h1.75l.225.464v-.464h2.043l.45 1.02.437-1.013h6.502c.295 0 .56.057.756.236v-.23h1.787v.23c.307-.17.686-.23 1.12-.23h2.606l.24.466v-.466h1.918l.254.465v-.466h1.858v3.948h-1.886l-.36-.6v.585h-2.353l-.256-.63h-.583l-.27.614h-1.213c-.48 0-.84-.104-1.08-.24v.24h-2.89v-.884c0-.12-.03-.12-.105-.135h-.105v1.036h-5.588v-.48l-.21.48h-1.167l-.202-.48v.465h-2.253l-.256-.624h-.579l-.256.624h-1.144v11.849h23.786v-7.108c-.27.135-.613.18-.973.18h-1.723v-.255c-.21.165-.57.255-.914.255h-5.466v-.9c0-.12-.018-.12-.12-.12h-.075v1.022h-1.8v-1.066c-.298.136-.643.15-.928.136h-.214v.915h-2.18l-.54-.617-.57.6h-3.541v-3.93h3.61l.518.602.554-.6h2.412c.28 0 .74.03.942.225v-.24h2.177c.202 0 .644.045.903.225v-.24h3.265v.24c.163-.164.508-.24.803-.24h1.89v.24c.194-.15.464-.24.84-.24h1.176v-13.084z"/><path d="m21.156 14.955c.004.005.006.012.01.016.01.01.024.01.032.02l-.042-.035zm2.672-1.873h.065v.555h-.065z"/><path d="m23.865 15.03v-.005c-.03-.025-.046-.048-.075-.07-.15-.153-.39-.215-.764-.225l-.36-.012c-.12 0-.194-.007-.27-.03-.09-.03-.15-.105-.15-.21 0-.09.03-.16.09-.204.076-.045.15-.05.27-.05h1.223v-.588h-1.283c-.69 0-.96.437-.96.84 0 .9.78.855 1.41.87.104 0 .18.015.224.06.046.03.076.106.076.18 0 .07-.034.138-.09.18-.045.056-.136.07-.27.07h-1.288v.605h1.287c.42 0 .734-.118.9-.36h.03c.09-.134.135-.3.135-.523 0-.24-.045-.39-.135-.526zm-5.268-.822v-.583h-2.235v2.833h2.235v-.585h-1.57v-.57h1.533v-.584h-1.532v-.51m-3.518-5.422h.685v2.813h-.684zm-.384.756-.007.006c0-.314-.13-.5-.34-.624-.217-.125-.47-.135-.81-.135h-1.539v2.82h.674v-1.034h.72c.24 0 .39.03.487.12.122.136.107.378.107.548v.354h.677v-.553c0-.25-.016-.375-.11-.516-.09-.107-.202-.19-.33-.237.172-.07.472-.3.472-.75zm-.855.396h-.015c-.09.054-.195.056-.33.056h-.826v-.623h.825c.12 0 .24.004.33.05.09.04.15.128.15.25s-.047.22-.134.266zm3.649-.566h.632v-.6h-.644c-.464 0-.804.105-1.02.33-.286.3-.362.69-.362 1.11 0 .512.123.833.36 1.074.232.238.645.31.97.31h.78l.255-.627h1.39l.262.627h1.36v-2.11l1.272 2.11h.95l.002.002v-2.813h-.684v1.963l-1.18-1.96h-1.02v2.611l-1.133-2.656h-1.004l-.943 2.22h-.3c-.177 0-.362-.03-.468-.134-.125-.15-.186-.36-.186-.662 0-.285.08-.51.194-.63.133-.135.272-.165.516-.165zm1.668-.108.464 1.118v.002h-.93zm-15.208 1.705.254.628h1.366v-2.205l.972 2.205h.584l.973-2.202.015 2.202h.69v-2.81h-1.116l-.807 1.904-.876-1.905h-1.092v2.663l-1.138-2.663h-.997l-1.198 2.81h.72l.26-.626h1.39zm-.688-1.705.46 1.118-.003.002h-.915l.457-1.12zm10.164 4.355h-2.142l-.85.923-.825-.922h-2.693v2.82h2.654l.855-.932.824.93h1.302v-.94h.838c.6 0 1.17-.164 1.17-.945l-.006-.003c0-.78-.598-.93-1.128-.93zm-4.186 2.233-.014-.002h-1.636v-.557h1.47v-.574h-1.47v-.51h1.68l.733.82-.764.824zm2.642.33-1.03-1.147 1.03-1.108v2.253zm1.553-1.258h-.885v-.717h.885c.24 0 .42.098.42.344 0 .243-.15.372-.42.372zm-1.898-5.552v-.586h-2.237v2.813h2.237v-.58h-1.567v-.564h1.527v-.576h-1.527v-.507"/></svg>