<svg clip-rule="evenodd" fill-rule="evenodd" stroke-linecap="square" stroke-miterlimit="1.41421" viewBox="0 0 1031 1361" xmlns="http://www.w3.org/2000/svg" xmlns:xlink="http://www.w3.org/1999/xlink"><clipPath id="a"><path clip-rule="evenodd" d="m-1620.14-654.708h1498.51v2377.01h-1498.51z"/></clipPath><g transform="matrix(.687516 0 0 .572275 1113.87 374.673)"><path d="m-1620.14-654.708h1498.51v2377.01h-1498.51z" fill="none"/><g clip-path="url(#a)"><path d="m1283.64 321.801c0-43.37-35.77-78.58-79.83-78.58h-826.601c-44.064 0-79.838 35.21-79.838 78.58v1152.939c0 43.37 35.774 78.58 79.838 78.58h826.601c44.06 0 79.83-35.21 79.83-78.58z" fill="#537176" transform="matrix(1.39499 0 0 1.70273 -1973.98 -1001.22)"/><g fill="none" stroke="#fff"><path d="m28 4.658h186.684c13.256 0 24 10.746 24 24v265.342c0 5.408-1.789 10.399-4.807 14.412-4.379 5.823-11.346 9.588-19.193 9.588h-186.684c-13.256 0-24-10.745-24-24v-265.342c0-13.254 10.744-24 24-24z" stroke-width="8" transform="matrix(6.06046532326 0 0 7.28295098413 -1608.01758838 -644.947351113)"/><path d="m606.494 1022.29c.565-25.28 13.181-47.462 32.234-61.177 13.177-9.485 29.433-14.919 46.912-14.529 42.756.957 76.638 36.404 75.681 79.176-.956 42.76-36.39 76.66-79.146 75.7-42.751-.96-76.638-36.4-75.681-79.17zm.17-203.492c-2.967-42.664 29.214-79.657 71.874-82.624 42.663-2.968 79.652 29.214 82.619 71.878 2.968 42.663-29.21 79.652-71.873 82.619-42.66 2.968-79.653-29.21-82.62-71.873zm-23.757-214.277c-7.248-42.16 21.045-82.214 63.189-89.459 42.149-7.247 82.19 21.058 89.439 63.219 7.248 42.16-21.042 82.209-63.19 89.455-42.144 7.246-82.189-21.054-89.438-63.215zm-49.506-196.517c-14.154-40.374 7.092-84.568 47.446-98.716 40.359-14.149 84.553 7.103 98.708 47.477 14.151 40.366-7.097 84.565-47.455 98.714-40.355 14.148-84.547-7.109-98.699-47.475z" stroke-linecap="butt" stroke-width="33.33" transform="matrix(1.45451403288 0 0 1.74740921292 -1607.79187236 -638.785438564)"/><path d="m226.921 316.418s4.82-25.517-52.503-39.936c0 0 .387-5.085 1.816-16.631" stroke-linecap="butt" stroke-width="8" transform="matrix(6.06046532326 0 0 7.28295098413 -1680.9140491 -633.425668477)"/><path d="m683.908 963.188c5.326-39.422.744-82.483.003-88.499zm0-215.381c-3.692-29.952-6.532-54.547-14.345-93.854zm-55.155-288.343s19.76 71.48 13.661 47.49c-2.735-10.754-10.642-36.795-13.661-47.49z" stroke-linecap="butt" stroke-width="33.33" transform="matrix(1.45451403288 0 0 1.74740921292 -1607.79187236 -638.785438564)"/><path d="m151.516 77.866c-2.199-5.27-3.368-8.404-5.961-13.441-1.001-1.947-2.033-3.873-3.097-5.778-2.806-5.026-5.83-9.902-9.088-14.592 83.8-4.773 104.682-36.707 104.682-36.707" stroke-linecap="butt" stroke-width="8.17" transform="matrix(6.04463576064 0 0 6.99416984348 -1678.804095 -610.940058283)"/></g></g></g></svg>