<?xml version="1.0" encoding="UTF-8" standalone="no"?><!DOCTYPE svg PUBLIC "-//W3C//DTD SVG 1.1//EN" "http://www.w3.org/Graphics/SVG/1.1/DTD/svg11.dtd"><svg width="100%" height="100%" viewBox="0 0 9 15" version="1.1" xmlns="http://www.w3.org/2000/svg" xmlns:xlink="http://www.w3.org/1999/xlink" xml:space="preserve" xmlns:serif="http://www.serif.com/" style="fill-rule:evenodd;clip-rule:evenodd;stroke-linejoin:round;stroke-miterlimit:1.41421;"><rect id="Double-Flat" serif:id="Double Flat" x="0" y="0" width="8.917" height="14.52" style="fill:none;"/><g><path d="M5.507,0.133c0,-0.039 -0.041,-0.059 -0.146,-0.059c-0.336,0 -1.175,0.317 -1.175,0.595l0,0.02c0.021,0.774 0.041,1.547 0.041,2.321c0,2.757 -0.147,5.416 -0.147,8.173c0,0.575 -0.041,2.936 0.189,2.936c0.756,0 4.365,-3.789 4.365,-7.181c0,-1.012 -0.356,-1.706 -1.217,-1.706c-0.503,0 -1.154,0.258 -1.972,0.754c0.062,-1.27 0.125,-2.46 0.125,-3.73c0,-0.694 -0.021,-1.408 -0.063,-2.123Zm-0.167,8.927c0.167,-0.377 0.818,-1.408 1.154,-1.408c0.167,0 0.252,0.178 0.273,0.555l0,0.06c0,0.555 -0.504,1.686 -1.448,2.38c0,-0.575 0,-1.13 0.021,-1.587Zm-3.82,-8.927c0,-0.039 -0.041,-0.059 -0.147,-0.059c-0.336,0 -1.174,0.317 -1.174,0.595l0,0.02c0.02,0.774 0.041,1.547 0.041,2.321c0,2.757 -0.147,5.416 -0.147,8.173c0,0.575 -0.041,2.936 0.189,2.936c0.755,0 4.365,-3.789 4.365,-7.181c0,-1.012 -0.357,-1.706 -1.217,-1.706c-0.504,0 -1.155,0.258 -1.973,0.754c0.063,-1.27 0.126,-2.46 0.126,-3.73c0,-0.694 -0.021,-1.408 -0.063,-2.123Zm-0.167,8.927c0.167,-0.377 0.817,-1.408 1.154,-1.408c0.167,0 0.252,0.178 0.273,0.555l0,0.06c0,0.555 -0.505,1.686 -1.448,2.38c0,-0.575 0,-1.13 0.021,-1.587Z" style="fill-rule:nonzero;"/></g></svg>