<?xml version="1.0" encoding="UTF-8" standalone="no"?><!DOCTYPE svg PUBLIC "-//W3C//DTD SVG 1.1//EN" "http://www.w3.org/Graphics/SVG/1.1/DTD/svg11.dtd"><svg width="100%" height="100%" viewBox="0 0 8 7" version="1.1" xmlns="http://www.w3.org/2000/svg" xmlns:xlink="http://www.w3.org/1999/xlink" xml:space="preserve" xmlns:serif="http://www.serif.com/" style="fill-rule:evenodd;clip-rule:evenodd;stroke-linejoin:round;stroke-miterlimit:1.41421;"><rect id="Double-Sharp" serif:id="Double Sharp" x="0" y="0" width="7.104" height="6.895" style="fill:none;"/><g><path d="M0.216,1.641c-0.02,0.02 -0.02,0.04 -0.02,0.08c0,0.376 1.448,1.467 2.142,1.467c0.1,0 0.159,-0.019 0.179,-0.039l0.674,0.297l-0.634,0.199c-0.179,0.079 -0.338,0.158 -0.516,0.158c-0.06,0 -0.139,-0.019 -0.238,-0.039c-0.02,0 -1.667,0.853 -1.667,1.329c0,0.377 1.191,1.547 1.587,1.547c0.377,0 0.972,-0.833 1.389,-1.468c0,-0.158 -0.079,-0.277 -0.079,-0.416c0,-0.1 0.079,-0.238 0.218,-0.377l0.258,-0.655l0.119,0.575c-0.06,0.219 -0.199,0.496 -0.199,0.715c0,0.297 1.31,1.527 1.607,1.527c0.08,0 1.607,-1.289 1.607,-1.686c0,-0.397 -1.488,-1.309 -1.706,-1.309c-0.278,0 -0.456,0.039 -0.555,0.099l-0.556,-0.179l0.774,-0.416c0.059,0.039 0.139,0.059 0.258,0.059c0.575,0 1.349,-0.516 2.063,-1.627c0.02,-0.019 0.02,-0.039 0.02,-0.059c0,-0.377 -1.409,-1.349 -1.786,-1.349c-0.258,0 -1.289,1.25 -1.507,1.468c-0.06,0.059 -0.08,0.139 -0.08,0.238c0,0.218 0.179,0.397 0.179,0.536l-0.238,0.793l-0.318,-0.714c0.139,-0.079 0.159,-0.357 0.159,-0.595c0,-0.575 -0.992,-1.547 -1.428,-1.547c-0.318,0 -1.25,0.872 -1.706,1.388Z" style="fill-rule:nonzero;"/></g></svg>