<?xml version="1.0" encoding="UTF-8" standalone="no"?><!DOCTYPE svg PUBLIC "-//W3C//DTD SVG 1.1//EN" "http://www.w3.org/Graphics/SVG/1.1/DTD/svg11.dtd"><svg width="100%" height="100%" viewBox="0 0 5 15" version="1.1" xmlns="http://www.w3.org/2000/svg" xmlns:xlink="http://www.w3.org/1999/xlink" xml:space="preserve" xmlns:serif="http://www.serif.com/" style="fill-rule:evenodd;clip-rule:evenodd;stroke-linejoin:round;stroke-miterlimit:1.41421;"><rect id="Flat" x="0" y="0" width="4.61" height="14.447" style="fill:none;"/><g><path d="M1.477,0.133c0,-0.039 -0.04,-0.059 -0.139,-0.059c-0.317,0 -1.111,0.317 -1.111,0.595l0,0.02c0.02,0.773 0.04,1.547 0.04,2.321c0,2.757 -0.139,5.415 -0.139,8.173c0,0.575 -0.04,2.936 0.179,2.936c0.714,0 4.126,-3.789 4.126,-7.181c0,-1.012 -0.337,-1.706 -1.151,-1.706c-0.476,0 -1.091,0.257 -1.864,0.753c0.059,-1.269 0.119,-2.459 0.119,-3.729c0,-0.694 -0.02,-1.409 -0.06,-2.123Zm-0.159,8.927c0.159,-0.377 0.774,-1.408 1.091,-1.408c0.159,0 0.238,0.178 0.258,0.555l0,0.06c0,0.555 -0.476,1.686 -1.369,2.38c0,-0.575 0,-1.131 0.02,-1.587Z" style="fill-rule:nonzero;"/></g></svg>