<?xml version="1.0" encoding="UTF-8" standalone="no"?><!DOCTYPE svg PUBLIC "-//W3C//DTD SVG 1.1//EN" "http://www.w3.org/Graphics/SVG/1.1/DTD/svg11.dtd"><svg width="100%" height="100%" viewBox="0 0 5 23" version="1.1" xmlns="http://www.w3.org/2000/svg" xmlns:xlink="http://www.w3.org/1999/xlink" xml:space="preserve" xmlns:serif="http://www.serif.com/" style="fill-rule:evenodd;clip-rule:evenodd;stroke-linejoin:round;stroke-miterlimit:1.41421;"><rect id="Natural" x="0" y="0" width="4.747" height="22.535" style="fill:none;"/><g><path d="M0.673,0.649c-0.257,7.34 -0.515,13.926 -0.575,14.481c0,0.159 0.099,0.238 0.278,0.238c0.635,0 2.122,-0.872 2.519,-0.872c0.06,0 0.099,-0.04 0.099,0.257c0,1.092 -0.277,5.872 -0.277,7.38c0,0.099 0.059,0.159 0.198,0.159c0.298,0 0.794,-0.278 0.794,-0.536c0.238,-3.769 0.714,-12.398 0.714,-14.699c0,-0.556 0,-0.576 -0.139,-0.576c-0.417,0 -1.885,0.714 -2.52,1.032c0.08,-1.071 0.02,-5.654 0.1,-7.36l0,-0.02c0,-0.039 -0.04,-0.059 -0.1,-0.059c-0.238,0 -1.091,0.436 -1.091,0.575Zm1.012,10.216c0.238,-0.297 0.754,-0.595 1.21,-0.892l0,1.349c-0.397,0.238 -0.952,0.495 -1.329,0.793l0,-0.139c0,-0.456 0.06,-0.853 0.119,-1.111Z" style="fill-rule:nonzero;"/></g></svg>