<?xml version="1.0" encoding="UTF-8" standalone="no"?><svg width="100%" height="100%" viewBox="0 0 6 21" version="1.1" xmlns="http://www.w3.org/2000/svg" xmlns:xlink="http://www.w3.org/1999/xlink" xml:space="preserve" xmlns:serif="http://www.serif.com/" style="fill-rule:evenodd;clip-rule:evenodd;stroke-linejoin:round;stroke-miterlimit:1.41421;"><rect id="Sharp" x="0" y="0" width="5.961" height="20.97" style="fill:none;"/><g><path d="M0.308,8.426c-0.099,0.059 -0.179,0.893 -0.179,1.666c0,0.695 0.06,1.349 0.218,1.349l0.04,0c0.377,-0.218 0.794,-0.377 1.171,-0.555l0,0.198c0,0.318 -0.02,0.754 -0.04,1.29c-0.556,0.297 -1.389,0 -1.389,1.686c0,0.853 0.099,1.825 0.238,1.825l0.02,0c0.377,-0.139 0.734,-0.238 1.111,-0.456c0,1.587 -0.159,3.174 -0.218,4.701c0.059,0.238 0.535,0.555 0.773,0.555c0.278,0 0.278,-3.412 0.377,-5.554c0.219,-0.099 0.516,-0.179 0.774,-0.317c0,0.773 -0.298,2.856 -0.298,4.106c0,0.178 0.457,0.397 0.715,0.397c0.297,0 0.456,-3.928 0.535,-5.039c0.397,-0.218 1.349,-0.278 1.349,-1.825c0,-0.774 -0.099,-1.686 -0.278,-1.686l-0.019,0c-0.318,0.099 -0.675,0.258 -1.052,0.476c0,-0.377 -0.02,-1.012 -0.02,-1.627c1.111,-0.476 1.568,-0.198 1.568,-2.241c0,-0.734 -0.04,-1.468 -0.179,-1.468c-0.317,0.138 -0.595,0.238 -0.972,0.376c0.059,-1.011 0.099,-2.876 0.099,-4.602c0,-0.555 0,-1.091 -0.02,-1.587l0,-0.02l-0.02,0c-0.138,0 -0.991,1.072 -1.051,1.25c-0.059,0.714 -0.04,1.349 -0.04,1.964c0,0.694 0.02,1.309 0.02,1.865c0,0.892 0.179,1.428 -0.674,1.845c0.02,-0.615 0.039,-1.488 0.039,-2.282c0,-0.535 0.08,-1.428 -0.218,-1.428c-0.952,0 -0.853,1.389 -0.853,2.48c0,0.496 0,1.051 0.02,1.706c-0.536,0.317 -0.992,0.575 -1.547,0.952Zm2.142,2.023c0.258,-0.139 0.496,-0.258 0.754,-0.416c0.02,0.218 0.02,0.397 0.02,0.615c0,0.892 0.139,0.912 -0.774,1.289c-0.02,-0.258 -0.039,-0.516 -0.039,-0.754c0,-0.238 0.019,-0.476 0.039,-0.734Z" style="fill-rule:nonzero;"/></g></svg>