<?xml version="1.0"?>
<svg xmlns="http://www.w3.org/2000/svg" viewBox="0 0 24 24" enable-background="new 0 0 24 24">
    <path style="text-indent:0;text-align:start;line-height:normal;text-transform:none;block-progression:tb;-inkscape-font-specification:Bitstream Vera Sans" d="M 12 2 C 6.4889972 2 2 6.4889972 2 12 C 2 17.511003 6.4889972 22 12 22 C 17.511003 22 22 17.511003 22 12 C 22 6.4889972 17.511003 2 12 2 z M 12 4 C 16.430123 4 20 7.5698774 20 12 C 20 16.430123 16.430123 20 12 20 C 7.5698774 20 4 16.430123 4 12 C 4 7.5698774 7.5698774 4 12 4 z M 11.4375 7.3125 C 9.3006592 7.5465088 8.6875 9.46875 8.6875 10.3125 L 10.59375 10.3125 C 10.59375 10.0125 10.60625 8.6875 11.90625 8.6875 C 12.90625 8.6875 13.09375 9.6 13.09375 10 C 13.09375 11.2 11.60625 12.3125 8.90625 15.3125 L 8.90625 16.59375 L 15.1875 16.59375 L 15.1875 15.1875 L 11.1875 15.1875 C 13.7875 12.5875 14.90625 11.40625 14.90625 9.90625 C 14.90625 8.80625 14.40625 7.3125 11.90625 7.3125 C 11.75 7.3125 11.579956 7.2968994 11.4375 7.3125 z" overflow="visible" enable-background="accumulate" font-family="Bitstream Vera Sans"/>
</svg>
