<?xml version="1.0"?>
<svg xmlns="http://www.w3.org/2000/svg" viewBox="0 0 24 24" enable-background="new 0 0 24 24">
    <path style="text-indent:0;text-align:start;line-height:normal;text-transform:none;block-progression:tb;-inkscape-font-specification:Bitstream Vera Sans" d="M 12 2 C 6.4889972 2 2 6.4889972 2 12 C 2 17.511003 6.4889972 22 12 22 C 17.511003 22 22 17.511003 22 12 C 22 6.4889972 17.511003 2 12 2 z M 12 4 C 16.430123 4 20 7.5698774 20 12 C 20 16.430123 16.430123 20 12 20 C 7.5698774 20 4 16.430123 4 12 C 4 7.5698774 7.5698774 4 12 4 z M 11.90625 7.1875 C 10.70625 7.1875 8.90625 7.8875 8.90625 9.6875 L 10.8125 9.6875 C 10.8125 9.4875 11 8.6875 12 8.6875 C 12.3 8.6875 13.3125 8.80625 13.3125 9.90625 C 13.3125 11.10625 12.40625 11.1875 11.90625 11.1875 L 10.90625 11.1875 L 10.8125 11.1875 L 10.8125 12.5 L 11.8125 12.5 C 12.0125 12.5 13.3125 12.50625 13.3125 13.90625 C 13.3125 14.10625 13.20625 15.1875 11.90625 15.1875 C 10.70625 15.1875 10.4 14.3 10.5 14 L 8.6875 14 C 8.5875 15 9.4125 16.6875 11.8125 16.6875 C 13.2125 16.6875 15.09375 16.1 15.09375 14 C 15.09375 12.5 14.09375 12.0125 13.59375 11.8125 C 13.79375 11.7125 15 11.1125 15 9.8125 C 15 9.1125 14.70625 7.1875 11.90625 7.1875 z" overflow="visible" enable-background="accumulate" font-family="Bitstream Vera Sans"/>
</svg>
