<?xml version="1.0"?>
<svg xmlns="http://www.w3.org/2000/svg" viewBox="0 0 24 24" enable-background="new 0 0 24 24">
    <path style="text-indent:0;text-align:start;line-height:normal;text-transform:none;block-progression:tb;-inkscape-font-specification:Bitstream Vera Sans" d="M 12 2 C 6.4889972 2 2 6.4889972 2 12 C 2 17.511003 6.4889972 22 12 22 C 17.511003 22 22 17.511003 22 12 C 22 6.4889972 17.511003 2 12 2 z M 12 4 C 16.430123 4 20 7.5698774 20 12 C 20 16.430123 16.430123 20 12 20 C 7.5698774 20 4 16.430123 4 12 C 4 7.5698774 7.5698774 4 12 4 z M 12.1875 7.3125 L 8.3125 13.40625 L 8.40625 14.59375 L 12.1875 14.59375 L 12.1875 16.59375 L 14 16.59375 L 14 14.59375 L 15 14.59375 L 15 13.09375 L 14 13.09375 L 14 7.3125 L 12.1875 7.3125 z M 12.09375 9.90625 L 12.09375 13.09375 L 10.09375 13.09375 L 12.09375 9.90625 z" overflow="visible" enable-background="accumulate" font-family="Bitstream Vera Sans"/>
</svg>
